{"title":"HP Lovecraft I","uid":4989260,"size":224093542,"categoryP":"audio","categoryS":"flac","magnet":"?xt=urn:btih:a20a39482bc0a41ecdf860fb5dd3aa9c61772aa4&amp;dn=HP+Lovecraft+I&amp;tr=udp%3A%2F%2Ftracker.openbittorrent.com%3A80&amp;tr=udp%3A%2F%2Fopen.demonii.com%3A1337&amp;tr=udp%3A%2F%2Ftracker.coppersurfer.tk%3A6969&amp;tr=udp%3A%2F%2Fexodus.desync.com%3A6969","seeders":2,"leechers":1,"uploader":"sowingmyseed","files":12,"time":1246945494,"description":"Exact Audio Copy V0.99 prebeta 4 from 23. January 2008\n\nEAC extraction logfile from 29. April 2009, 17:39\n\nHP Lovecraft / HP Lovecraft I\n\nUsed drive  : ATAPI   DVD D  DH16D3P   Adapter: 0  ID: 1\n\nRead mode               : Secure\nUtilize accurate stream : Yes\nDefeat audio cache      : No\nMake use of C2 pointers : No\n\nRead offset correction                      : 6\nOverread into Lead-In and Lead-Out          : No\nFill up missing offset samples with silence : Yes\nDelete leading and trailing silent blocks   : No\nNull samples used in CRC calculations       : No\nUsed interface                              : Installed external ASPI interface\nGap handling                                : Not detected, thus appended to previous track\n\nUsed output format : Internal WAV Routines\nSample format      : 44.100 Hz; 16 Bit; Stereo\n\n\nTOC of the extracted CD\n\n     Track |   Start  |  Length  | Start sector | End sector \n    ---------------------------------------------------------\n        1  |  0:00.00 |  2:40.50 |         0    |    12049   \n        2  |  2:40.50 |  4:39.35 |     12050    |    33009   \n        3  |  7:20.10 |  2:49.20 |     33010    |    45704   \n        4  | 10:09.30 |  4:15.12 |     45705    |    64841   \n        5  | 14:24.42 |  1:47.68 |     64842    |    72934   \n        6  | 16:12.35 |  6:37.10 |     72935    |   102719   \n        7  | 22:49.45 |  2:39.42 |    102720    |   114686   \n        8  | 25:29.12 |  2:09.35 |    114687    |   124396   \n        9  | 27:38.47 |  3:59.05 |    124397    |   142326   \n       10  | 31:37.52 |  0:32.45 |    142327    |   144771   \n       11  | 32:10.22 |  3:23.00 |    144772    |   159996   \n       12  | 35:33.22 |  5:19.15 |    159997    |   183936   \n       13  | 40:52.37 |  3:08.65 |    183937    |   198101   \n       14  | 44:01.27 |  6:35.05 |    198102    |   227731   \n       15  | 50:36.32 |  4:58.28 |    227732    |   250109   \n       16  | 55:34.60 |  2:44.30 |    250110    |   262439   \n       17  | 58:19.15 |  3:23.22 |    262440    |   277686   \n       18  | 61:42.37 |  0:40.45 |    277687    |   280731   \n       19  | 62:23.07 |  3:08.48 |    280732    |   294879   \n       20  | 65:31.55 |  2:42.02 |    294880    |   307031   \n       21  | 68:13.57 |  2:36.10 |    307032    |   318741   \n\n\nTrack  1\n\n     Filename E:MusicHP LovecraftHP Lovecraft IHP Lovecraft - HP Lovecraft I - 01. Wayfaring Stranger.wav\n\n     Peak level 98.8 %\n     Track quality 100.0 %\n     Copy CRC 4A2B150B\n     Track not present in AccurateRip database\n     Copy OK\n\nTrack  2\n\n     Filename E:MusicHP LovecraftHP Lovecraft IHP Lovecraft - HP Lovecraft I - 02. Let's Get Together.wav\n\n     Peak level 100.0 %\n     Track quality 100.0 %\n     Copy CRC 07A9B5DD\n     Track not present in AccurateRip database\n     Copy OK\n\nTrack  3\n\n     Filename E:MusicHP LovecraftHP Lovecraft IHP Lovecraft - HP Lovecraft I - 03. I've Been Wrong Before.wav\n\n     Peak level 89.0 %\n     Track quality 100.0 %\n     Copy CRC 8C67EE72\n     Track not present in AccurateRip database\n     Copy OK\n\nTrack  4\n\n     Filename E:MusicHP LovecraftHP Lovecraft IHP Lovecraft - HP Lovecraft I - 04. The Drifter.wav\n\n     Peak level 99.9 %\n     Track quality 100.0 %\n     Copy CRC 337A77C1\n     Track not present in AccurateRip database\n     Copy OK\n\nTrack  5\n\n     Filename E:MusicHP LovecraftHP Lovecraft IHP Lovecraft - HP Lovecraft I - 05. That's The Bag I'm In.wav\n\n     Peak level 98.2 %\n     Track quality 99.9 %\n     Copy CRC 31C6BC20\n     Track not present in AccurateRip database\n     Copy OK\n\nTrack  6\n\n     Filename E:MusicHP LovecraftHP Lovecraft IHP Lovecraft - HP Lovecraft I - 06. The White Ship.wav\n\n     Peak level 99.9 %\n     Track quality 99.9 %\n     Copy CRC 6C23B064\n     Track not present in AccurateRip database\n     Copy OK\n\nTrack  7\n\n     Filename E:MusicHP LovecraftHP Lovecraft IHP Lovecraft - HP Lovecraft I - 07. Country Boy &amp; Bleeker Street.wav\n\n     Peak level 94.8 %\n     Track quality 100.0 %\n     Copy CRC C4EF567C\n     Track not present in AccurateRip database\n     Copy OK\n\nTrack  8\n\n     Filename E:MusicHP LovecraftHP Lovecraft IHP Lovecraft - HP Lovecraft I - 08. The Time Machine.wav\n\n     Peak level 100.0 %\n     Track quality 100.0 %\n     Copy CRC 3A56C2C5\n     Track not present in AccurateRip database\n     Copy OK\n\nTrack  9\n\n     Filename E:MusicHP LovecraftHP Lovecraft IHP Lovecraft - HP Lovecraft I - 09. That's How Much I Love You Baby (More Or Less).wav\n\n     Peak level 79.4 %\n     Track quality 99.9 %\n     Copy CRC 8CD588B5\n     Track not present in AccurateRip database\n     Copy OK\n\nTrack 10\n\n     Filename E:MusicHP LovecraftHP Lovecraft IHP Lovecraft - HP Lovecraft I - 10. Gloria Patria.wav\n\n     Peak level 36.3 %\n     Track quality 100.0 %\n     Copy CRC 530CE357\n     Track not present in AccurateRip database\n     Copy OK\n\n\nNone of the tracks are present in the AccurateRip database\n\nNo errors occurred\n\nEnd of status report\n","torrent":{"xt":"urn:btih:a20a39482bc0a41ecdf860fb5dd3aa9c61772aa4","amp;dn":"HP+Lovecraft+I","amp;tr":["udp%3A%2F%2Ftracker.openbittorrent.com%3A80","udp%3A%2F%2Fopen.demonii.com%3A1337","udp%3A%2F%2Ftracker.coppersurfer.tk%3A6969","udp%3A%2F%2Fexodus.desync.com%3A6969"],"infoHash":"a20a39482bc0a41ecdf860fb5dd3aa9c61772aa4","infoHashBuffer":{"type":"Buffer","data":[162,10,57,72,43,192,164,30,205,248,96,251,93,211,170,156,97,119,42,164]},"announce":[],"urlList":[]}}